<svg xmlns="http://www.w3.org/2000/svg" viewBox="0 0 800 400">
  <!-- Sky Background -->
  <linearGradient id="skyGradient" x1="0%" y1="0%" x2="0%" y2="100%">
    <stop offset="0%" stop-color="#87CEEB" />
    <stop offset="100%" stop-color="#E0F7FA" />
  </linearGradient>
  <rect width="800" height="400" fill="url(#skyGradient)" />
  
  <!-- Sun -->
  <circle cx="650" cy="80" r="40" fill="#FFD700" />
  <circle cx="650" cy="80" r="60" fill="#FFD700" opacity="0.3" />
  
  <!-- Clouds -->
  <g fill="#FFFFFF" opacity="0.8">
    <ellipse cx="150" cy="70" rx="50" ry="30" />
    <ellipse cx="180" cy="70" rx="40" ry="25" />
    <ellipse cx="120" cy="70" rx="30" ry="20" />
    
    <ellipse cx="550" cy="120" rx="60" ry="30" />
    <ellipse cx="580" cy="120" rx="50" ry="25" />
    <ellipse cx="520" cy="120" rx="40" ry="20" />
  </g>
  
  <!-- City Buildings -->
  <!-- Tall Building 1 - Modern Glass Tower -->
  <linearGradient id="building1Gradient" x1="0%" y1="0%" x2="100%" y2="0%">
    <stop offset="0%" stop-color="#1D4ED8" />
    <stop offset="100%" stop-color="#0284C7" />
  </linearGradient>
  <rect x="100" y="150" width="80" height="250" fill="url(#building1Gradient)" />
  <g fill="#FFFFFF" opacity="0.3">
    <rect x="110" y="160" width="15" height="20" />
    <rect x="130" y="160" width="15" height="20" />
    <rect x="150" y="160" width="15" height="20" />
    
    <rect x="110" y="190" width="15" height="20" />
    <rect x="130" y="190" width="15" height="20" />
    <rect x="150" y="190" width="15" height="20" />
    
    <rect x="110" y="220" width="15" height="20" />
    <rect x="130" y="220" width="15" height="20" />
    <rect x="150" y="220" width="15" height="20" />
    
    <rect x="110" y="250" width="15" height="20" />
    <rect x="130" y="250" width="15" height="20" />
    <rect x="150" y="250" width="15" height="20" />
    
    <rect x="110" y="280" width="15" height="20" />
    <rect x="130" y="280" width="15" height="20" />
    <rect x="150" y="280" width="15" height="20" />
    
    <rect x="110" y="310" width="15" height="20" />
    <rect x="130" y="310" width="15" height="20" />
    <rect x="150" y="310" width="15" height="20" />
    
    <rect x="110" y="340" width="15" height="20" />
    <rect x="130" y="340" width="15" height="20" />
    <rect x="150" y="340" width="15" height="20" />
  </g>
  
  <!-- Tall Building 2 - Office Building -->
  <rect x="200" y="200" width="100" height="200" fill="#FF8008" />
  <g fill="#FFFFFF" opacity="0.3">
    <rect x="210" y="210" width="20" height="15" />
    <rect x="240" y="210" width="20" height="15" />
    <rect x="270" y="210" width="20" height="15" />
    
    <rect x="210" y="235" width="20" height="15" />
    <rect x="240" y="235" width="20" height="15" />
    <rect x="270" y="235" width="20" height="15" />
    
    <rect x="210" y="260" width="20" height="15" />
    <rect x="240" y="260" width="20" height="15" />
    <rect x="270" y="260" width="20" height="15" />
    
    <rect x="210" y="285" width="20" height="15" />
    <rect x="240" y="285" width="20" height="15" />
    <rect x="270" y="285" width="20" height="15" />
    
    <rect x="210" y="310" width="20" height="15" />
    <rect x="240" y="310" width="20" height="15" />
    <rect x="270" y="310" width="20" height="15" />
    
    <rect x="210" y="335" width="20" height="15" />
    <rect x="240" y="335" width="20" height="15" />
    <rect x="270" y="335" width="20" height="15" />
    
    <rect x="210" y="360" width="20" height="15" />
    <rect x="240" y="360" width="20" height="15" />
    <rect x="270" y="360" width="20" height="15" />
  </g>
  
  <!-- Tall Building 3 - Skyscraper -->
  <linearGradient id="building3Gradient" x1="0%" y1="0%" x2="0%" y2="100%">
    <stop offset="0%" stop-color="#333333" />
    <stop offset="100%" stop-color="#666666" />
  </linearGradient>
  <rect x="320" y="100" width="60" height="300" fill="url(#building3Gradient)" />
  <g fill="#FFFFFF" opacity="0.3">
    <rect x="330" y="110" width="10" height="15" />
    <rect x="350" y="110" width="10" height="15" />
    
    <rect x="330" y="135" width="10" height="15" />
    <rect x="350" y="135" width="10" height="15" />
    
    <rect x="330" y="160" width="10" height="15" />
    <rect x="350" y="160" width="10" height="15" />
    
    <rect x="330" y="185" width="10" height="15" />
    <rect x="350" y="185" width="10" height="15" />
    
    <rect x="330" y="210" width="10" height="15" />
    <rect x="350" y="210" width="10" height="15" />
    
    <rect x="330" y="235" width="10" height="15" />
    <rect x="350" y="235" width="10" height="15" />
    
    <rect x="330" y="260" width="10" height="15" />
    <rect x="350" y="260" width="10" height="15" />
    
    <rect x="330" y="285" width="10" height="15" />
    <rect x="350" y="285" width="10" height="15" />
    
    <rect x="330" y="310" width="10" height="15" />
    <rect x="350" y="310" width="10" height="15" />
    
    <rect x="330" y="335" width="10" height="15" />
    <rect x="350" y="335" width="10" height="15" />
    
    <rect x="330" y="360" width="10" height="15" />
    <rect x="350" y="360" width="10" height="15" />
  </g>
  
  <!-- Medium Buildings -->
  <rect x="400" y="180" width="70" height="220" fill="#1D4ED8" />
  <g fill="#FFFFFF" opacity="0.3">
    <rect x="410" y="190" width="15" height="10" />
    <rect x="435" y="190" width="15" height="10" />
    
    <rect x="410" y="210" width="15" height="10" />
    <rect x="435" y="210" width="15" height="10" />
    
    <rect x="410" y="230" width="15" height="10" />
    <rect x="435" y="230" width="15" height="10" />
    
    <rect x="410" y="250" width="15" height="10" />
    <rect x="435" y="250" width="15" height="10" />
    
    <rect x="410" y="270" width="15" height="10" />
    <rect x="435" y="270" width="15" height="10" />
    
    <rect x="410" y="290" width="15" height="10" />
    <rect x="435" y="290" width="15" height="10" />
    
    <rect x="410" y="310" width="15" height="10" />
    <rect x="435" y="310" width="15" height="10" />
    
    <rect x="410" y="330" width="15" height="10" />
    <rect x="435" y="330" width="15" height="10" />
    
    <rect x="410" y="350" width="15" height="10" />
    <rect x="435" y="350" width="15" height="10" />
    
    <rect x="410" y="370" width="15" height="10" />
    <rect x="435" y="370" width="15" height="10" />
  </g>
  
  <!-- Office Building -->
  <rect x="490" y="220" width="80" height="180" fill="#0284C7" />
  <g fill="#FFFFFF" opacity="0.3">
    <rect x="500" y="230" width="15" height="10" />
    <rect x="525" y="230" width="15" height="10" />
    <rect x="550" y="230" width="15" height="10" />
    
    <rect x="500" y="250" width="15" height="10" />
    <rect x="525" y="250" width="15" height="10" />
    <rect x="550" y="250" width="15" height="10" />
    
    <rect x="500" y="270" width="15" height="10" />
    <rect x="525" y="270" width="15" height="10" />
    <rect x="550" y="270" width="15" height="10" />
    
    <rect x="500" y="290" width="15" height="10" />
    <rect x="525" y="290" width="15" height="10" />
    <rect x="550" y="290" width="15" height="10" />
    
    <rect x="500" y="310" width="15" height="10" />
    <rect x="525" y="310" width="15" height="10" />
    <rect x="550" y="310" width="15" height="10" />
    
    <rect x="500" y="330" width="15" height="10" />
    <rect x="525" y="330" width="15" height="10" />
    <rect x="550" y="330" width="15" height="10" />
    
    <rect x="500" y="350" width="15" height="10" />
    <rect x="525" y="350" width="15" height="10" />
    <rect x="550" y="350" width="15" height="10" />
    
    <rect x="500" y="370" width="15" height="10" />
    <rect x="525" y="370" width="15" height="10" />
    <rect x="550" y="370" width="15" height="10" />
  </g>
  
  <!-- Modern Building with antenna -->
  <rect x="590" y="170" width="70" height="230" fill="#FF8008" />
  <rect x="620" y="140" width="10" height="30" fill="#666666" />
  <g fill="#FFFFFF" opacity="0.3">
    <rect x="600" y="180" width="15" height="10" />
    <rect x="625" y="180" width="15" height="10" />
    
    <rect x="600" y="200" width="15" height="10" />
    <rect x="625" y="200" width="15" height="10" />
    
    <rect x="600" y="220" width="15" height="10" />
    <rect x="625" y="220" width="15" height="10" />
    
    <rect x="600" y="240" width="15" height="10" />
    <rect x="625" y="240" width="15" height="10" />
    
    <rect x="600" y="260" width="15" height="10" />
    <rect x="625" y="260" width="15" height="10" />
    
    <rect x="600" y="280" width="15" height="10" />
    <rect x="625" y="280" width="15" height="10" />
    
    <rect x="600" y="300" width="15" height="10" />
    <rect x="625" y="300" width="15" height="10" />
    
    <rect x="600" y="320" width="15" height="10" />
    <rect x="625" y="320" width="15" height="10" />
    
    <rect x="600" y="340" width="15" height="10" />
    <rect x="625" y="340" width="15" height="10" />
    
    <rect x="600" y="360" width="15" height="10" />
    <rect x="625" y="360" width="15" height="10" />
  </g>
  
  <!-- Small Buildings in Front -->
  <rect x="680" y="250" width="50" height="150" fill="#1D4ED8" />
  <g fill="#FFFFFF" opacity="0.3">
    <rect x="690" y="260" width="10" height="8" />
    <rect x="710" y="260" width="10" height="8" />
    
    <rect x="690" y="278" width="10" height="8" />
    <rect x="710" y="278" width="10" height="8" />
    
    <rect x="690" y="296" width="10" height="8" />
    <rect x="710" y="296" width="10" height="8" />
    
    <rect x="690" y="314" width="10" height="8" />
    <rect x="710" y="314" width="10" height="8" />
    
    <rect x="690" y="332" width="10" height="8" />
    <rect x="710" y="332" width="10" height="8" />
    
    <rect x="690" y="350" width="10" height="8" />
    <rect x="710" y="350" width="10" height="8" />
    
    <rect x="690" y="368" width="10" height="8" />
    <rect x="710" y="368" width="10" height="8" />
  </g>
  
  <!-- Trees -->
  <rect x="40" y="350" width="5" height="15" fill="#8B4513" />
  <circle cx="42.5" cy="335" r="15" fill="#228B22" />
  
  <rect x="70" y="355" width="5" height="15" fill="#8B4513" />
  <circle cx="72.5" cy="340" r="15" fill="#228B22" />
  
  <rect x="760" y="370" width="5" height="15" fill="#8B4513" />
  <circle cx="762.5" cy="355" r="15" fill="#228B22" />
  
  <rect x="785" y="365" width="5" height="15" fill="#8B4513" />
  <circle cx="787.5" cy="350" r="15" fill="#228B22" />
  
  <!-- Ground -->
  <rect x="0" y="385" width="800" height="15" fill="#666666" />
</svg>